<svg width="230" height="89" viewBox="0 0 230 89" fill="none" xmlns="http://www.w3.org/2000/svg">
<path d="M1.24695 85.6604C1.17768 85.5911 1.07376 85.3832 0.935213 85.0368C0.865938 84.7596 0.762025 84.4132 0.623475 83.9974C0.484925 83.651 0.346375 83.3392 0.207825 83.062C0.069275 82.7848 0 82.6116 0 82.5423C0.41565 81.7801 0.796663 81.3297 1.14304 81.1912C1.48941 81.0526 1.83579 80.914 2.18216 80.7754C2.59781 81.4683 2.90955 81.8148 3.11738 81.8148C3.3252 81.8148 3.39448 81.9187 3.3252 82.1266C3.6023 82.2652 3.8794 82.2998 4.1565 82.2305C4.50288 82.1612 4.74534 82.1959 4.88389 82.3345C5.16099 82.473 5.43809 82.5423 5.71519 82.5423C5.99229 82.5423 6.30403 82.5423 6.6504 82.5423C7.2046 81.6415 7.51634 81.0526 7.58562 80.7754C7.44706 79.8746 7.44706 79.0085 7.58562 78.177C7.79344 77.3455 7.86272 76.4794 7.79344 75.5786C7.65489 74.8857 7.62025 74.5393 7.68953 74.5393C7.7588 74.47 7.79344 74.366 7.79344 74.2275C7.79344 73.7424 7.72416 73.292 7.58562 72.8763C7.44706 72.3913 7.37779 71.9409 7.37779 71.5251C7.37779 71.1787 7.44706 70.9015 7.58562 70.6936C7.72416 70.4858 7.79344 70.2433 7.79344 69.9661C7.79344 69.4118 7.72416 68.996 7.58562 68.7189C7.51634 68.3724 7.65489 67.8874 8.00127 67.2638C7.86272 66.7094 7.82808 66.3283 7.89735 66.1205C8.0359 65.9126 8.13982 65.7047 8.20909 65.4969C8.20909 65.289 8.17445 65.1158 8.10518 64.9772C8.10518 64.7693 8.13982 64.5614 8.20909 64.3536C8.27837 63.9378 8.38228 63.5567 8.52083 63.2103C8.65938 62.7945 8.72865 62.3788 8.72865 61.963C8.72865 61.6859 8.65938 61.4434 8.52083 61.2355C8.45155 61.0276 8.41691 60.7851 8.41691 60.5079C8.27837 60.0229 8.24373 59.5725 8.313 59.1568C8.38228 58.6717 8.41691 58.1867 8.41691 57.7017C8.34764 57.4938 8.41691 57.3206 8.62474 57.182C8.83257 57.0434 8.93648 56.8355 8.93648 56.5584L9.55995 52.5049C9.62923 51.812 9.62923 51.1191 9.55995 50.4262C9.55995 49.7333 9.62923 49.0057 9.76778 48.2435C9.83705 47.5506 9.94097 46.8924 10.0795 46.2687C10.2181 45.5758 10.2873 44.8829 10.2873 44.19C10.3566 43.6357 10.322 43.116 10.1834 42.631C10.1142 42.146 10.0795 41.6263 10.0795 41.072C10.0795 40.1712 10.1488 39.305 10.2873 38.4736C10.4259 37.6421 10.4952 36.7759 10.4952 35.8752C10.4952 34.9744 10.4605 34.0736 10.3913 33.1728C10.322 32.2721 10.3566 31.3713 10.4952 30.4705C10.5644 30.4012 10.6337 30.0894 10.703 29.5351C10.8415 28.9808 10.9108 28.6343 10.9108 28.4957C10.9108 28.0107 10.8762 27.5603 10.8069 27.1446C10.7376 26.6595 10.703 26.1398 10.703 25.5855C10.8415 24.8233 10.8762 24.3729 10.8069 24.2344C10.7376 24.0958 10.703 23.9572 10.703 23.8186C10.6337 23.1257 10.6337 22.4328 10.703 21.7399C10.7723 21.047 10.7723 20.3541 10.703 19.6612C10.5644 18.8297 10.5298 18.3793 10.5991 18.31C10.7376 18.1714 10.8415 18.0329 10.9108 17.8943C10.9801 16.9935 11.0494 16.3352 11.1186 15.9195C11.2572 15.4345 11.3611 14.9148 11.4304 14.3605C11.5689 13.3904 11.6382 12.4203 11.6382 11.4503C11.6382 10.4802 11.6382 9.51012 11.6382 8.54006C10.9455 8.05502 10.0795 7.8818 9.04039 8.02038C8.07054 8.08967 7.10069 8.26289 6.13084 8.54006C5.16099 8.81722 4.29505 9.12903 3.53303 9.47548C2.771 9.75264 2.32071 9.89122 2.18216 9.89122C1.90506 9.89122 1.6626 9.82193 1.45478 9.68335C1.24695 9.54477 1.17768 9.30225 1.24695 8.9558C0.762025 8.67864 0.484925 8.43612 0.41565 8.22825C0.346375 8.02038 0.346375 7.81251 0.41565 7.60463C0.5542 7.39676 0.69275 7.22354 0.8313 7.08496C1.03913 6.87708 1.1084 6.66921 1.03913 6.46134C2.00898 6.32276 2.94419 6.08024 3.84476 5.73379C4.81461 5.38734 5.8191 5.17947 6.85823 5.11018C7.2046 5.04088 7.51634 5.04088 7.79344 5.11018C8.07054 5.11018 8.38228 5.11018 8.72865 5.11018C9.4214 5.04088 10.0795 4.97159 10.703 4.9023C11.3265 4.76372 11.9846 4.62514 12.6773 4.48656C13.1623 4.48656 13.5086 4.45192 13.7165 4.38263C13.9243 4.24404 14.1321 4.17475 14.3399 4.17475C15.1712 4.24404 15.6215 4.27869 15.6908 4.27869C15.8293 4.2094 15.9679 4.17475 16.1064 4.17475C16.5221 4.10546 16.9377 4.14011 17.3534 4.27869C17.769 4.34798 18.1847 4.34798 18.6003 4.27869C18.8774 4.27869 19.1892 4.2094 19.5356 4.07082C19.8819 3.93224 20.159 3.89759 20.3669 3.96688C20.8518 3.8283 21.3021 3.8283 21.7177 3.96688C22.1334 4.10546 22.5837 4.17475 23.0686 4.17475C23.6228 4.17475 24.1423 4.10546 24.6273 3.96688C25.1122 3.8283 25.6318 3.75901 26.186 3.75901C26.7402 3.75901 27.2944 3.86295 27.8486 4.07082C28.472 4.2094 29.0609 4.27869 29.6151 4.27869C29.9614 4.27869 30.2385 4.24404 30.4464 4.17475C30.6542 4.10546 30.8967 4.10546 31.1738 4.17475C31.5894 4.17475 31.9704 4.24404 32.3168 4.38263C32.7324 4.52121 33.1481 4.62514 33.5637 4.69443C33.8409 4.76372 34.0833 4.76372 34.2911 4.69443C34.5682 4.55585 34.8453 4.48656 35.1224 4.48656C35.261 4.48656 35.4342 4.52121 35.642 4.5905C35.8498 4.65979 36.0576 4.69443 36.2655 4.69443C36.7504 4.69443 37.2353 4.65979 37.7203 4.5905C38.2745 4.45192 38.7594 4.62514 39.175 5.11018C40.3527 5.24876 41.4265 5.49127 42.3963 5.83773C43.4354 6.11489 44.4746 6.46134 45.5137 6.87708C45.9293 7.01566 46.2411 7.22354 46.4489 7.5007C46.726 7.70857 47.1417 7.74322 47.6959 7.60463C48.1808 8.15896 48.6311 8.64399 49.0467 9.05974C49.5316 9.40619 50.1551 9.6487 50.9171 9.78729C51.2635 10.1337 51.5406 10.5148 51.7484 10.9306C52.4412 11.3463 52.8915 11.5888 53.0993 11.6581C53.3071 11.7274 53.4803 11.7967 53.6189 11.866C53.8267 12.1432 54.0345 12.3857 54.2423 12.5936C54.5194 12.7321 54.8312 12.9054 55.1776 13.1132C55.5239 13.3904 55.9049 13.6676 56.3206 13.9447C56.5284 14.2219 56.667 14.499 56.7362 14.7762C56.8748 15.0534 57.0133 15.2959 57.1519 15.5038C57.2904 15.7809 57.4983 15.9541 57.7754 16.0234C58.0525 16.0234 58.1564 16.2659 58.0871 16.751C58.8491 17.5825 59.3341 18.2407 59.5419 18.7258C59.819 19.1415 60.1307 19.5572 60.4771 19.973C60.8927 20.5273 61.1006 20.8738 61.1006 21.0123C61.1006 21.0816 61.1352 21.1856 61.2045 21.3242C61.5509 21.6013 61.6894 21.8785 61.6201 22.1556C61.6201 22.3635 61.7933 22.4328 62.1397 22.3635C62.0011 22.71 62.0358 22.9525 62.2436 23.0911C62.4514 23.2296 62.4861 23.5415 62.3475 24.0265C62.6939 24.4422 63.0056 24.8926 63.2827 25.3776C63.6291 25.8627 63.6984 26.3824 63.4906 26.9367C63.9062 27.491 64.2526 28.08 64.5297 28.7036C64.8068 29.2579 65.1878 29.7776 65.6727 30.2626C65.742 30.7477 65.7766 31.1634 65.7766 31.5099C65.8459 31.8563 66.0537 32.2028 66.4001 32.5492C66.4694 33.3114 66.6079 34.039 66.8158 34.7319C67.0929 35.4248 67.37 36.1177 67.6471 36.8106C67.7856 37.157 67.8203 37.5381 67.751 37.9539C67.751 38.3003 67.751 38.6468 67.751 38.9932C67.8203 39.3397 67.9242 39.6515 68.0627 39.9287C68.2013 40.2058 68.3052 40.5176 68.3745 40.8641C68.4437 41.1412 68.4437 41.3838 68.3745 41.5916C68.3052 41.7995 68.3052 42.0074 68.3745 42.2152C68.4437 42.4231 68.513 42.631 68.5823 42.8389C68.6516 43.0467 68.7208 43.2546 68.7901 43.4625C68.9286 44.4325 68.894 45.4026 68.6862 46.3727C68.4784 47.2735 68.3052 48.2089 68.1666 49.1789C68.0973 49.8718 68.0281 50.5648 67.9588 51.2577C67.9588 51.9506 67.8895 52.6435 67.751 53.3364C67.6817 53.6135 67.5778 53.8907 67.4392 54.1679C67.37 54.445 67.3007 54.7222 67.2314 54.9993C66.9543 56.1773 66.7811 57.3206 66.7118 58.4292C66.7118 59.5379 66.5387 60.6812 66.1923 61.8591C66.0537 62.4134 65.8459 62.9678 65.5688 63.5221C65.361 64.0764 65.1878 64.6654 65.0492 65.289C65.0492 65.4276 64.8414 65.774 64.4258 66.3283C64.0794 66.8827 63.8369 67.1945 63.6984 67.2638C63.6984 67.5409 63.6291 67.7488 63.4906 67.8874C63.4213 68.026 63.4213 68.2685 63.4906 68.6149C63.4213 68.6149 63.2481 68.7535 62.971 69.0307C62.6939 69.2385 62.3822 69.4811 62.0358 69.7582C61.7587 69.9661 61.4816 70.2086 61.2045 70.4858C60.9967 70.6936 60.8581 70.8322 60.7888 70.9015C60.581 71.4558 60.3039 71.8716 59.9575 72.1487C59.6112 72.3566 59.3687 72.5298 59.2301 72.6684C58.4681 73.4306 57.7061 74.1235 56.9441 74.7471C56.182 75.3708 55.42 76.029 54.658 76.7219C54.3809 76.9298 54.0692 77.103 53.7228 77.2416C53.4457 77.3802 53.1686 77.5188 52.8915 77.6573C52.7529 77.7959 52.5797 77.9345 52.3719 78.0731C52.2334 78.2117 52.0948 78.3502 51.9563 78.4888C51.4021 78.6274 51.125 78.7313 51.125 78.8006C51.125 78.8699 51.0557 78.9392 50.9171 79.0085C50.7786 79.1471 50.6054 79.2164 50.3976 79.2164C50.1898 79.2164 49.9819 79.2857 49.7741 79.4242C48.8043 79.9093 48.1461 80.2904 47.7998 80.5675C47.4534 80.7754 47.0724 80.9833 46.6567 81.1912C46.5182 81.2605 46.345 81.3297 46.1372 81.399C45.9293 81.399 45.7215 81.4683 45.5137 81.6069C44.4746 82.0919 43.7472 82.3691 43.3315 82.4384C42.9159 82.577 42.5002 82.7502 42.0846 82.9581C41.7382 83.0966 41.3918 83.2352 41.0454 83.3738C40.6991 83.5817 40.3181 83.7549 39.9024 83.8935L38.7594 83.6856C38.0666 84.0321 37.6163 84.2399 37.4085 84.3092C37.27 84.3785 37.1314 84.4132 36.9929 84.4132C36.4387 84.5517 35.8152 84.621 35.1224 84.621C34.4297 84.621 33.8408 84.8289 33.3559 85.2447C31.9704 85.1061 30.5849 85.1754 29.1994 85.4525C27.8832 85.799 26.567 86.0415 25.2507 86.1801C24.558 86.3187 24.1423 86.3533 24.0038 86.284C23.9345 86.2147 23.8306 86.1801 23.6921 86.1801C22.9993 86.2494 22.3412 86.3879 21.7177 86.5958C21.0942 86.8037 20.4361 86.9423 19.7434 87.0116C19.1892 87.0116 18.6003 86.9423 17.9769 86.8037C17.3534 86.6651 16.7299 86.5958 16.1064 86.5958C15.8986 86.5958 15.6908 86.6305 15.483 86.6998C15.3444 86.769 15.1712 86.8037 14.9634 86.8037C14.2707 86.6651 13.8896 86.6305 13.8204 86.6998C13.8204 86.769 13.7511 86.8037 13.6125 86.8037C13.4047 86.8037 13.1969 86.7344 12.9891 86.5958C12.8505 86.4572 12.6773 86.3879 12.4695 86.3879C12.0539 86.3879 11.6382 86.4226 11.2226 86.4919C10.8762 86.5612 10.4952 86.5958 10.0795 86.5958C9.94097 86.5958 9.76778 86.5612 9.55995 86.4919C9.35213 86.4226 9.1443 86.3879 8.93648 86.3879C8.72865 86.3879 8.52083 86.4226 8.313 86.4919C8.17445 86.5612 8.00127 86.5958 7.79344 86.5958C7.23924 86.3186 6.89286 86.1801 6.75431 86.1801C6.68504 86.2494 6.58113 86.2494 6.44258 86.1801C5.88838 86.1108 5.40345 86.0068 4.9878 85.8683C4.57215 85.7297 4.08723 85.6604 3.53303 85.6604C3.18665 85.5911 2.80564 85.5911 2.38999 85.6604C1.97434 85.799 1.59333 85.799 1.24695 85.6604ZM37.8242 80.9833C38.4476 80.8447 38.7594 80.7754 38.7594 80.7754C38.7594 80.7061 38.8287 80.6368 38.9672 80.5675C39.175 80.429 39.4175 80.3597 39.6946 80.3597C39.9717 80.3597 40.2488 80.2904 40.5259 80.1518C41.4957 79.8746 42.5695 79.3896 43.7472 78.6967C44.3014 78.3502 44.6131 78.177 44.6824 78.177C44.8209 78.177 44.9595 78.1424 45.098 78.0731C45.9293 77.5881 46.5875 77.2762 47.0724 77.1377C47.5573 76.9298 48.0076 76.7219 48.4232 76.514C48.6311 76.3755 48.8043 76.2715 48.9428 76.2022C49.1506 76.0637 49.3585 75.9251 49.5663 75.7865C49.7741 75.6479 49.9819 75.544 50.1898 75.4747C50.4669 75.4054 50.7093 75.3015 50.9171 75.1629C51.125 75.0243 51.2982 74.8857 51.4367 74.7471C51.5753 74.5393 51.7484 74.366 51.9563 74.2275C52.0948 74.0889 52.268 73.9503 52.4758 73.8117C52.6837 73.6731 52.8915 73.5346 53.0993 73.396C53.4457 73.0495 53.7574 72.7377 54.0345 72.4605C54.3809 72.1141 54.8312 71.8716 55.3854 71.733C55.5932 71.0401 55.9049 70.6244 56.3206 70.4858C56.8055 70.2779 57.2904 69.9661 57.7754 69.5504C57.7754 69.5504 57.8793 69.4118 58.0871 69.1346C58.2949 68.8574 58.5374 68.5803 58.8145 68.3031C59.0916 68.026 59.3341 67.7488 59.5419 67.4716C59.7497 67.1945 59.8536 67.0559 59.8536 67.0559C60.4771 66.4323 60.7542 66.0512 60.6849 65.9126C60.6849 65.774 60.7196 65.6354 60.7888 65.4969C61.343 64.9425 61.5855 64.5268 61.5162 64.2496C61.4469 63.9725 61.4816 63.73 61.6201 63.5221C62.3822 62.8985 62.7285 62.1016 62.6593 61.1316C62.6593 60.1615 62.8324 59.2954 63.1788 58.5332C63.4559 58.1867 63.5252 57.9442 63.3866 57.8056C63.3174 57.667 63.3174 57.5285 63.3866 57.3899C63.4559 56.0733 63.6984 54.7568 64.114 53.4403C64.5297 52.0545 64.7375 50.7726 64.7375 49.5947C64.7375 49.3868 64.6682 49.2136 64.5297 49.075C64.4604 48.8671 64.4604 48.6593 64.5297 48.4514C64.5297 48.3821 64.5643 48.2089 64.6336 47.9317C64.7029 47.5853 64.7721 47.2388 64.8414 46.8924C64.98 46.4766 65.0839 46.1302 65.1532 45.853C65.2224 45.5065 65.2571 45.3333 65.2571 45.3333C64.9107 45.1947 64.7721 44.9869 64.8414 44.7097C64.98 44.4325 65.1185 44.19 65.2571 43.9822C65.0492 43.8436 64.9453 43.6703 64.9453 43.4625C64.9453 43.1853 64.9107 42.9082 64.8414 42.631C64.8414 41.9381 64.8068 41.4184 64.7375 41.072C64.599 40.7948 64.4604 40.5523 64.3219 40.3444C64.2526 40.1365 64.1833 39.8594 64.114 39.5129C64.0448 39.1665 63.9755 38.7161 63.9062 38.1618C63.9062 37.6074 63.8369 37.157 63.6984 36.8106C63.5598 36.4641 63.4906 36.1523 63.4906 35.8752C63.5598 35.5287 63.5252 35.2169 63.3866 34.9397C63.1095 34.3161 62.9017 33.8657 62.7632 33.5886C62.6246 33.2421 62.4861 32.9303 62.3475 32.6532C62.209 32.3067 62.1051 32.0295 62.0358 31.8217C61.9665 31.5445 62.0011 31.4059 62.1397 31.4059C61.9319 31.0595 61.6201 30.5398 61.2045 29.8469C60.8581 29.0847 60.6156 28.6343 60.4771 28.4957C60.4771 27.8721 60.2 27.2831 59.6458 26.7288C59.6458 26.3824 59.5765 26.1052 59.438 25.8973C59.2994 25.6202 59.1262 25.343 58.9184 25.0658V23.8186C58.5028 23.4722 58.191 23.0564 57.9832 22.5714C57.8446 22.0171 57.4983 21.6013 56.9441 21.3242C56.8748 20.9084 56.667 20.5966 56.3206 20.3887C56.0435 20.1809 55.9396 19.7998 56.0089 19.2454C55.3161 18.4832 54.7273 17.9636 54.2423 17.6864C53.8267 17.34 53.4457 17.0628 53.0993 16.8549C53.03 16.7163 52.8915 16.5085 52.6837 16.2313C52.5451 15.8849 52.4066 15.6423 52.268 15.5038C51.7831 15.3652 51.3674 15.1573 51.0211 14.8801C50.6747 14.603 50.2937 14.2912 49.878 13.9447C49.4624 13.529 49.0814 13.1825 48.735 12.9054C48.3886 12.5589 48.2154 12.351 48.2154 12.2817C48.0769 12.2817 47.7651 12.1778 47.2802 11.9699C46.8646 11.6928 46.3796 11.4156 45.8254 11.1385C45.3405 10.8613 44.8556 10.6188 44.3707 10.4109C43.955 10.1337 43.7125 9.92587 43.6433 9.78729C43.2969 9.92587 42.9851 9.96051 42.708 9.89122C42.431 9.75264 42.1539 9.61406 41.8768 9.47548C41.6689 9.3369 41.4265 9.23296 41.1494 9.16367C40.8723 9.02509 40.5952 9.02509 40.3181 9.16367C39.8331 8.67864 39.2443 8.47077 38.5516 8.54006C37.8588 8.54006 37.2353 8.47077 36.6811 8.33218C35.4342 7.98573 34.4643 7.77786 33.7716 7.70857C33.1481 7.63928 32.5593 7.60463 32.0051 7.60463C31.6587 7.60463 31.3123 7.63928 30.9659 7.70857C30.6888 7.77786 30.3771 7.81251 30.0307 7.81251C29.5458 7.39676 29.1301 7.25818 28.7838 7.39676C28.4374 7.46605 28.091 7.53534 27.7446 7.60463C27.329 7.25818 26.7055 7.15425 25.8742 7.29283C25.0429 7.43141 24.3848 7.53534 23.8999 7.60463C23.6921 8.15896 23.6574 8.71328 23.796 9.26761C23.9345 9.82193 24.0038 10.3763 24.0038 10.9306C24.0038 11.1385 23.9692 11.3463 23.8999 11.5542C23.8306 11.7621 23.8306 12.0046 23.8999 12.2817V17.4785C24.1077 17.9636 24.1423 18.31 24.0038 18.5179C23.8652 18.6565 23.8306 18.899 23.8999 19.2454C23.8999 20.0076 24.0038 20.7698 24.2116 21.532C24.4887 22.2942 24.6273 23.0564 24.6273 23.8186C24.558 24.9273 24.5234 26.0013 24.5234 27.0406C24.5234 28.08 24.6273 29.154 24.8351 30.2626C24.4887 30.5398 24.3502 30.7823 24.4194 30.9902C24.4887 31.1981 24.558 31.4752 24.6273 31.8217C24.7658 32.6532 24.8351 33.6232 24.8351 34.7319C24.8351 35.7712 24.6965 36.672 24.4194 37.4342C24.6965 38.4736 24.8351 39.5476 24.8351 40.6562C24.8351 41.7649 24.7658 42.8735 24.6273 43.9822C24.4887 44.9522 24.4541 45.9916 24.5234 47.1002C24.6619 48.2089 24.8351 49.2482 25.0429 50.2183C24.6965 50.3569 24.558 50.5994 24.6273 50.9459C24.6965 51.223 24.6965 51.5002 24.6273 51.7773C24.558 52.0545 24.4541 52.3317 24.3155 52.6088C24.177 52.886 24.0731 53.1631 24.0038 53.4403C23.9345 53.9946 23.8999 54.549 23.8999 55.1033C23.8999 55.5883 23.8306 56.0733 23.6921 56.5584C24.177 57.3206 24.2463 58.1521 23.8999 59.0528C23.6228 59.8843 23.415 60.6812 23.2764 61.4434C23.0686 63.1063 23.1379 64.8386 23.4842 66.6402C23.1379 66.9866 22.9993 67.3331 23.0686 67.6795C23.2071 67.9567 23.2764 68.2685 23.2764 68.6149C23.0686 69.6543 22.9647 70.4165 22.9647 70.9015C23.0339 71.3866 23.0686 71.9062 23.0686 72.4605C23.0686 72.8763 23.0339 73.4306 22.9647 74.1235C22.8954 74.7471 22.8261 75.4054 22.7568 76.0983C22.6876 76.7219 22.6876 77.3455 22.7568 77.9691C22.8261 78.5928 22.9993 79.0778 23.2764 79.4242C22.93 79.5628 22.8261 79.8053 22.9647 80.1518C23.1725 80.429 23.3457 80.6368 23.4842 80.7754C23.415 81.4683 23.4842 81.988 23.6921 82.3345C23.8999 82.6116 24.0731 82.8541 24.2116 83.062C24.8351 82.9927 25.4586 82.9581 26.082 82.9581C26.7055 82.9581 27.329 82.8888 27.9525 82.7502C28.1603 82.6809 28.3681 82.577 28.5759 82.4384C28.853 82.2998 29.0955 82.1959 29.3033 82.1266C29.9961 82.3345 30.7581 82.2998 31.5894 82.0226C32.4207 81.7455 33.0788 81.6069 33.5637 81.6069C34.1872 81.6762 34.6029 81.6415 34.8107 81.503C35.0185 81.3644 35.2263 81.2605 35.4342 81.1912C36.2655 81.1219 36.6811 81.0526 36.6811 80.9833C36.7504 80.8447 36.8543 80.7754 36.9929 80.7754L37.8242 80.9833ZM15.8986 7.60463C15.6908 8.50541 15.5176 9.44083 15.3791 10.4109C15.2405 11.3117 15.1712 12.2471 15.1712 13.2172C15.3098 14.5337 15.2751 15.5384 15.0673 16.2313C14.8595 16.9242 14.8941 17.5825 15.1712 18.2061C14.4785 18.6911 14.1667 19.3147 14.236 20.0769C14.3053 20.8391 14.4092 21.532 14.5478 22.1556C14.4785 23.4029 14.4092 24.3036 14.3399 24.858C14.2707 25.4123 14.2707 26.0013 14.3399 26.6249C14.4092 26.9713 14.4785 27.2831 14.5478 27.5603C14.6863 27.8375 14.7556 28.1493 14.7556 28.4957C14.7556 29.05 14.6863 29.639 14.5478 30.2626C14.4092 30.8862 14.2707 31.4752 14.1321 32.0295C14.0628 32.5146 14.0282 32.9996 14.0282 33.4846C14.0282 33.9004 14.0282 34.3854 14.0282 34.9397C14.0282 35.2169 14.0628 35.4941 14.1321 35.7712C14.2014 35.9791 14.2014 36.2216 14.1321 36.4988C14.1321 36.7759 14.0628 37.0185 13.9243 37.2263C13.855 37.4342 13.8204 37.6767 13.8204 37.9539C13.7511 38.5775 13.7511 39.1665 13.8204 39.7208C13.9589 40.2058 13.8896 40.7255 13.6125 41.2798C13.8204 41.6956 14.0282 42.1113 14.236 42.5271C14.4438 42.9428 14.4092 43.3585 14.1321 43.7743C14.1321 44.1207 14.1667 44.3979 14.236 44.6058C14.3053 44.8136 14.2707 45.0562 14.1321 45.3333C14.0628 45.7491 13.9936 46.1648 13.9243 46.5806C13.9243 46.927 13.8896 47.3081 13.8204 47.7238C13.7511 47.9317 13.6472 48.1396 13.5086 48.3475C13.4394 48.5553 13.4047 48.7978 13.4047 49.075C13.4047 49.2829 13.4394 49.4908 13.5086 49.6986C13.5779 49.9065 13.6125 50.149 13.6125 50.4262C13.6125 50.8419 13.5779 51.2923 13.5086 51.7773C13.5086 52.1931 13.474 52.6435 13.4047 53.1285C13.3354 53.3364 13.2662 53.5442 13.1969 53.7521C13.1276 53.8907 13.0583 54.0639 12.9891 54.2718C12.9891 54.4797 12.9891 54.6875 12.9891 54.8954C13.0583 55.034 13.0583 55.2072 12.9891 55.4151C12.9198 55.6923 12.8159 55.9694 12.6773 56.2466C12.6081 56.4544 12.5388 56.697 12.4695 56.9741C12.2617 57.9442 12.1924 58.9143 12.2617 59.8843C12.331 60.8544 12.331 61.8245 12.2617 62.7945C12.2617 63.0717 12.1924 63.3489 12.0539 63.626C11.9846 63.8339 12.0539 64.0764 12.2617 64.3536C11.9846 64.9079 11.7768 65.3583 11.6382 65.7047C11.9153 66.5362 11.8114 67.5063 11.3265 68.6149C11.3957 68.9614 11.465 69.2732 11.5343 69.5504C11.6036 69.8275 11.6382 70.1393 11.6382 70.4858C11.6382 70.6936 11.5689 70.9015 11.4304 71.1094C11.3611 71.3173 11.3265 71.5251 11.3265 71.733C11.2572 71.9409 11.2572 72.1488 11.3265 72.3566C11.3957 72.5645 11.4304 72.807 11.4304 73.0842C11.4304 73.8464 11.3611 74.5739 11.2226 75.2668C11.1533 75.9597 11.1186 76.6873 11.1186 77.4495C11.1186 77.7959 11.1879 78.2463 11.3265 78.8006C11.3265 79.355 11.2572 79.8746 11.1186 80.3597C11.0494 80.8447 11.1533 81.2951 11.4304 81.7108C11.4304 81.988 11.3265 82.2998 11.1186 82.6463C10.9108 83.062 10.9108 83.3392 11.1186 83.4777C11.8114 83.6856 12.2617 83.7203 12.4695 83.5817C12.7466 83.5124 12.9891 83.4777 13.1969 83.4777C13.4047 83.4777 13.5779 83.5124 13.7165 83.5817C13.9243 83.651 14.1321 83.6856 14.3399 83.6856C14.617 83.6856 14.8595 83.651 15.0673 83.5817C15.2751 83.5124 15.483 83.4777 15.6908 83.4777C15.8986 83.4777 16.1064 83.5124 16.3143 83.5817C16.5221 83.651 16.7299 83.6856 16.9377 83.6856C17.2841 83.6856 17.6305 83.5817 17.9769 83.3738C18.3232 83.1659 18.6696 83.1313 19.016 83.2699C18.9467 82.7155 18.9467 82.1612 19.016 81.6069C19.1545 80.9833 19.2238 80.3943 19.2238 79.84C19.1545 79.0778 19.0506 78.3503 18.9121 77.6573C18.8428 76.9644 18.8082 76.2715 18.8082 75.5786C18.9467 74.5393 18.9814 73.8117 18.9121 73.396C18.8428 72.9802 18.9467 72.5991 19.2238 72.2527C18.9467 71.6291 18.9121 71.0747 19.1199 70.5897C19.397 70.1047 19.4316 69.5157 19.2238 68.8228C19.7087 68.2685 19.8819 67.7488 19.7434 67.2638C19.6741 66.7787 19.6395 66.2591 19.6395 65.7047C19.778 64.6654 19.778 63.9725 19.6395 63.626C19.5702 63.2796 19.5702 62.9331 19.6395 62.5867C19.6395 62.0323 19.6741 61.478 19.7434 60.9237C19.8819 60.3694 19.9512 59.815 19.9512 59.2607C20.0205 58.845 20.0205 58.4292 19.9512 58.0135C19.9512 57.5977 19.9512 57.182 19.9512 56.7663C19.9512 56.5584 19.9166 56.3505 19.8473 56.1426C19.8473 55.8655 19.8819 55.623 19.9512 55.4151C20.2976 54.6529 20.4361 53.9253 20.3669 53.2324C20.2976 52.4702 20.3669 51.708 20.5747 50.9459C20.8518 50.3915 20.9903 49.9758 20.9903 49.6986C21.0596 49.3522 21.1289 48.9711 21.1982 48.5553C21.2674 48.1396 21.3021 47.7931 21.3021 47.516C21.3021 47.1695 21.3021 46.9617 21.3021 46.8924C21.3021 46.6152 21.2328 46.3727 21.0942 46.1648C21.025 45.8876 20.9903 45.6105 20.9903 45.3333C20.9211 45.0562 20.9211 44.779 20.9903 44.5018C21.1289 44.2247 21.1635 43.9129 21.0942 43.5664C21.025 42.1806 21.025 40.7948 21.0942 39.409C21.1635 37.9539 21.1635 36.5334 21.0942 35.1476C21.0942 34.8012 21.0596 34.4894 20.9903 34.2122C20.9903 33.935 20.9903 33.6579 20.9903 33.3807C20.9211 32.5492 20.8518 31.7524 20.7825 30.9902C20.7825 30.1587 20.7825 29.3272 20.7825 28.4957C20.7825 28.2879 20.8171 28.08 20.8864 27.8721C20.9557 27.6642 20.9903 27.4217 20.9903 27.1446C20.9903 26.8674 20.9557 26.5902 20.8864 26.3131C20.8171 26.0359 20.7825 25.7241 20.7825 25.3776C20.7132 23.9918 20.6093 22.606 20.4708 21.2202C20.4015 19.8344 20.3669 18.4486 20.3669 17.0628C20.3669 16.5085 20.2976 15.8849 20.159 15.1919C20.0898 14.4298 20.2283 13.7715 20.5747 13.2172C20.2283 12.5243 20.0898 11.8314 20.159 11.1385C20.2283 10.3763 19.9858 9.6487 19.4316 8.9558C19.2238 8.74793 19.1892 8.47077 19.3277 8.12431C19.5356 7.70857 19.3624 7.46605 18.8082 7.39676C18.3232 7.67392 17.8383 7.77786 17.3534 7.70857C16.9377 7.63928 16.4528 7.60463 15.8986 7.60463Z" fill="#E1DFD9"/>
<path d="M116.798 3.34327C117.144 3.41256 117.387 3.34327 117.525 3.1354C117.733 2.92752 118.01 2.85823 118.356 2.92752C118.772 3.41256 119.361 3.62043 120.123 3.55114C120.954 3.48185 121.578 3.68972 121.993 4.17475C122.34 4.24404 122.582 4.2094 122.721 4.07082C122.929 3.93224 123.136 3.89759 123.344 3.96688C124.175 4.24404 124.66 4.38263 124.799 4.38263C125.007 4.38263 125.18 4.41727 125.319 4.48656C125.734 4.69443 126.081 4.97159 126.358 5.31805C126.704 5.6645 127.12 5.83773 127.605 5.83773C127.674 6.18418 127.812 6.42669 128.02 6.56528C128.297 6.63457 128.505 6.77315 128.644 6.98102C129.336 7.74322 130.064 8.43612 130.826 9.05974C131.657 9.68335 132.35 10.4802 132.904 11.4503C133.251 11.7274 133.597 11.9699 133.943 12.1778C134.29 12.3857 134.636 12.6628 134.982 13.0093C135.398 13.5636 135.71 14.1526 135.918 14.7762C136.195 15.3998 136.61 15.9195 137.165 16.3352C137.303 16.6817 137.442 17.0628 137.58 17.4785C137.719 17.825 137.892 18.1368 138.1 18.414C138.585 18.8297 138.793 19.1069 138.723 19.2454C138.723 19.384 138.758 19.5226 138.827 19.6612C138.966 19.7998 139.139 19.9383 139.347 20.0769C139.555 20.2155 139.728 20.3887 139.866 20.5966C140.143 20.9431 140.351 21.3588 140.49 21.8438C140.628 22.3289 140.905 22.6753 141.321 22.8832C141.598 24.1304 142.187 25.3084 143.088 26.417C142.949 27.1792 143.088 27.976 143.503 28.8075C143.988 29.639 144.231 30.4359 144.231 31.1981C144.161 32.0295 144.161 32.5492 144.231 32.7571C144.369 32.8957 144.438 33.0343 144.438 33.1728C144.508 33.3807 144.508 33.5886 144.438 33.7964C144.438 33.935 144.438 34.1083 144.438 34.3161C144.508 34.5933 144.612 35.0437 144.75 35.6673C144.889 36.2909 145.027 36.9492 145.166 37.6421C145.374 38.335 145.547 38.9932 145.685 39.6169C145.893 40.1712 146.066 40.5523 146.205 40.7601C145.928 41.3145 145.928 41.9034 146.205 42.5271C146.551 43.0814 146.759 43.6357 146.828 44.19C146.828 44.5365 146.759 44.9176 146.621 45.3333C146.482 45.6798 146.413 46.0262 146.413 46.3727C146.759 47.2042 146.898 47.7585 146.828 48.0356C146.828 48.3128 146.932 48.5207 147.14 48.6593C146.932 49.1443 146.898 49.5947 147.036 50.0104C147.175 50.4262 147.209 50.8766 147.14 51.3616C146.794 52.2624 146.586 52.9899 146.517 53.5442C146.517 54.0293 146.551 54.445 146.621 54.7915C146.482 55.0686 146.274 55.623 145.997 56.4544C145.789 57.2166 145.547 58.0481 145.27 58.9489C145.062 59.8497 144.854 60.7158 144.646 61.5473C144.508 62.3788 144.438 62.9678 144.438 63.3142C144.092 63.5914 143.78 64.2496 143.503 65.289C143.295 66.2591 143.157 66.9866 143.088 67.4716C143.088 68.0953 143.018 68.4763 142.88 68.6149C142.81 68.6842 142.776 68.7882 142.776 68.9267C142.707 69.1346 142.672 69.3771 142.672 69.6543C142.741 69.8622 142.776 70.0354 142.776 70.174C142.291 70.659 142.048 70.9708 142.048 71.1094C142.048 71.248 142.014 71.3866 141.945 71.5251C141.806 71.733 141.633 71.9062 141.425 72.0448C141.286 72.1141 141.321 72.322 141.529 72.6684C141.252 72.9456 140.975 73.2228 140.698 73.4999C140.42 73.7771 140.178 74.0889 139.97 74.4353C139.832 74.7125 139.485 75.2668 138.931 76.0983C138.377 76.8605 138.1 77.3109 138.1 77.4495C137.199 78.0038 136.403 78.6274 135.71 79.3203C135.086 79.9439 134.394 80.5675 133.632 81.1912C133.424 81.3297 133.181 81.503 132.904 81.7108C132.627 81.9187 132.488 82.1959 132.488 82.5423C132.211 82.473 131.692 82.6116 130.93 82.9581C130.237 83.3045 129.787 83.547 129.579 83.6856C128.886 84.2399 128.401 84.5518 128.124 84.621C127.847 84.7596 127.57 84.8982 127.293 85.0368C126.254 85.6604 125.422 86.0068 124.799 86.0761C124.175 86.1454 123.691 86.3879 123.344 86.8037C122.79 87.0116 122.27 87.1155 121.785 87.1155C121.301 87.1848 120.781 87.462 120.227 87.947C119.465 87.947 118.668 87.9816 117.837 88.0509C117.006 88.1202 116.209 88.2241 115.447 88.3627C114.962 88.432 114.477 88.5013 113.992 88.5706C113.507 88.7092 113.022 88.7438 112.537 88.6745C112.26 88.6745 112.018 88.6052 111.81 88.4667C111.671 88.3974 111.464 88.3627 111.186 88.3627C110.563 88.3627 109.766 88.4667 108.796 88.6745C107.827 88.8824 107.134 88.9517 106.718 88.8824C105.54 88.5359 104.64 88.3627 104.016 88.3627C103.393 88.432 102.804 88.432 102.25 88.3627C102.042 88.2934 101.834 88.2241 101.626 88.1549C101.488 88.0856 101.315 88.0163 101.107 87.947C100.899 87.8777 100.657 87.8777 100.38 87.947C100.172 88.0163 99.9639 88.0163 99.756 87.947C99.3404 87.8777 98.9247 87.7738 98.5091 87.6352C98.0934 87.4966 97.6778 87.358 97.2621 87.2194C97.0543 87.0808 96.8118 87.0116 96.5347 87.0116C96.3269 87.0808 96.1191 87.0808 95.9113 87.0116C95.7034 86.873 95.5303 86.7344 95.3917 86.5958C95.2532 86.5265 95.08 86.4572 94.8721 86.3879C94.5258 86.2494 94.0062 86.1108 93.3135 85.9722C92.6207 85.8336 92.2051 85.5911 92.0665 85.2447C91.6509 85.1061 91.2352 85.0368 90.8196 85.0368C90.4039 85.0368 90.0229 84.8982 89.6765 84.621C89.538 84.4825 89.3648 84.3092 89.157 84.1014C89.0184 83.9628 88.8799 83.8242 88.7413 83.6856C88.1871 83.3392 87.5983 82.9234 86.9748 82.4384C86.4206 82.0226 85.8317 81.7455 85.2083 81.6069C85.0697 81.3297 84.9312 81.0872 84.7926 80.8793C84.6541 80.6715 84.4116 80.5675 84.0652 80.5675C83.9267 80.2211 83.7535 79.9093 83.5457 79.6321C83.3378 79.355 83.0608 79.1471 82.7144 79.0085C82.5066 78.177 82.1602 77.4148 81.6753 76.7219C81.1903 75.9597 80.7747 75.1975 80.4283 74.4353C80.2897 74.1582 80.1166 73.9156 79.9087 73.7078C79.7009 73.4999 79.5277 73.292 79.3892 73.0842C79.2506 72.6684 79.1467 72.2873 79.0774 71.9409C79.0774 71.5944 78.8696 71.248 78.454 70.9015C78.3847 70.7629 78.3847 70.5897 78.454 70.3818C78.5232 70.1047 78.5232 69.8968 78.454 69.7582C78.3154 68.7882 78.1769 68.026 78.0383 67.4716C77.7612 66.7094 77.6573 66.2591 77.7266 66.1205C77.7959 65.9126 77.7959 65.7047 77.7266 65.4969C77.4495 64.8732 77.3109 64.5268 77.3109 64.4575C77.3802 64.3882 77.3802 64.2843 77.3109 64.1457C76.9645 63.6607 76.7914 63.2796 76.7914 63.0024C76.7914 62.6559 76.7221 62.3095 76.5835 61.963C76.5143 61.3394 76.4103 60.9583 76.2718 60.8198C76.2025 60.6812 76.1679 60.5426 76.1679 60.404C76.0986 60.1961 76.1332 60.0229 76.2718 59.8843C76.4796 59.6765 76.5835 59.4686 76.5835 59.2607C76.5835 59.0528 76.5143 58.8796 76.3757 58.741C76.2372 58.5332 76.1679 58.3253 76.1679 58.1174C76.0986 57.6324 76.0986 57.182 76.1679 56.7663C76.2372 56.2812 76.2372 55.7615 76.1679 55.2072C76.0293 54.7222 75.9254 54.2718 75.8561 53.8561C75.8561 53.4403 75.8215 52.9899 75.7522 52.5049C75.6137 51.812 75.579 51.3616 75.6483 51.1537C75.7176 50.8766 75.683 50.5648 75.5444 50.2183C75.4751 50.0104 75.4059 49.8372 75.3366 49.6986C75.2673 49.4908 75.2327 49.2829 75.2327 49.075C75.1634 48.7978 75.1634 48.5553 75.2327 48.3475C75.3019 48.0703 75.3366 47.7931 75.3366 47.516C75.4059 47.1695 75.3712 46.8231 75.2327 46.4766C75.1634 46.0609 75.1634 45.6798 75.2327 45.3333C75.5098 44.5018 75.5791 44.0168 75.4405 43.8782C75.3712 43.6703 75.3366 43.4625 75.3366 43.2546C75.4059 42.8389 75.4751 42.4231 75.5444 42.0074C75.683 41.5916 75.7522 41.1759 75.7522 40.7601C75.7522 40.4137 75.7176 40.1019 75.6483 39.8247C75.579 39.4783 75.5444 39.1318 75.5444 38.7854C75.5444 38.5082 75.579 38.2657 75.6483 38.0578C75.7176 37.8499 75.683 37.6421 75.5444 37.4342C75.9601 36.8799 76.2025 36.2216 76.2718 35.4594C76.3411 34.6972 76.445 34.0043 76.5835 33.3807C76.9299 32.2028 77.1031 31.4059 77.1031 30.9902C77.1031 30.5051 77.1724 29.9855 77.3109 29.4311C77.6573 29.2233 77.8651 28.9808 77.9344 28.7036C78.0037 28.4264 78.073 28.1493 78.1422 27.8721C78.2808 27.5257 78.4193 27.2485 78.5579 27.0406C78.6964 26.8328 78.8696 26.7288 79.0774 26.7288C79.1467 26.1052 79.3199 25.5162 79.597 24.9619C79.9434 24.4076 80.1512 23.784 80.2205 23.0911C80.6361 22.9525 80.9132 22.6753 81.0518 22.2596C81.1903 21.8438 81.4328 21.4627 81.7792 21.1163C81.9177 20.9777 82.0909 20.8391 82.2987 20.7005C82.5758 20.562 82.6451 20.3194 82.5066 19.973C82.9915 19.8344 83.4071 19.488 83.7535 18.9336C84.1692 18.31 84.5502 17.825 84.8965 17.4785C85.0351 17.2707 85.2083 17.0974 85.4161 16.9589C85.6932 16.8203 85.901 16.6124 86.0396 16.3352C86.4552 16.1967 86.7323 16.0581 86.8709 15.9195C87.0094 15.7116 87.1826 15.5384 87.3904 15.3998C88.1525 14.8455 88.6028 14.4298 88.7413 14.1526C88.9491 13.8754 89.2609 13.7022 89.6765 13.6329C90.0922 12.8707 90.8195 12.2125 91.8587 11.6581C92.8978 11.0345 93.5906 10.4109 93.9369 9.78729C94.4911 9.44083 95.08 9.12903 95.7034 8.85186C96.3962 8.5747 96.9158 8.15896 97.2621 7.60463C97.4007 7.60463 97.7817 7.46605 98.4052 7.18889C99.0286 6.84244 99.6868 6.49599 100.38 6.14953C101.142 5.80308 101.834 5.49127 102.458 5.21411C103.081 4.86766 103.462 4.62514 103.601 4.48656C104.778 4.34798 105.922 4.2094 107.03 4.07082C108.138 3.93224 109.247 3.75901 110.355 3.55114C110.632 3.48185 111.082 3.41256 111.706 3.34327C112.329 3.20469 112.988 3.1354 113.68 3.1354C114.373 3.06611 114.997 3.03146 115.551 3.03146C116.174 3.03146 116.59 3.1354 116.798 3.34327ZM115.862 6.25347C115.031 6.39205 114.512 6.42669 114.304 6.3574C114.096 6.28811 113.888 6.25347 113.68 6.25347C113.403 6.25347 113.126 6.32276 112.849 6.46134C112.641 6.53063 112.399 6.53063 112.122 6.46134C111.775 6.32276 111.429 6.3574 111.083 6.56528C110.736 6.77315 110.459 6.91173 110.251 6.98102C109.766 7.1196 109.316 7.18889 108.9 7.18889C108.485 7.1196 108.069 7.1196 107.653 7.18889C106.961 7.53534 106.476 7.67392 106.199 7.60463C105.991 7.53534 105.783 7.53534 105.575 7.60463C105.021 7.74322 104.501 7.95109 104.016 8.22825C103.532 8.50541 103.012 8.60935 102.458 8.54006C101.626 9.37154 100.657 10.0644 99.5482 10.6188C98.4398 11.1731 97.4007 11.7967 96.4308 12.4896C95.6688 13.1825 95.3224 13.6329 95.3917 13.8408C95.461 13.9794 95.4263 14.2219 95.2878 14.5683C94.9414 14.8455 94.5604 15.1919 94.1448 15.6077C93.7984 16.0234 93.5559 16.4392 93.4174 16.8549L92.5861 17.6864C92.0319 18.4486 91.6855 19.1761 91.5469 19.8691C91.4084 20.562 91.1313 21.2549 90.7156 21.9478C90.8542 22.9871 90.7503 24.1997 90.4039 25.5855C90.0575 26.9713 89.8151 28.2186 89.6765 29.3272C89.6765 29.743 89.7112 30.1933 89.7804 30.6784C89.919 31.0941 89.8151 31.4752 89.4687 31.8217C89.8151 33.5539 89.8843 35.2515 89.6765 36.9145C89.538 38.5775 89.4687 40.3098 89.4687 42.1113C89.4687 42.6656 89.5033 43.1853 89.5726 43.6703C89.7112 44.0861 89.8151 44.5711 89.8843 45.1255C89.9536 45.6798 89.9536 46.2341 89.8843 46.7884C89.8843 47.3427 89.8843 47.8971 89.8843 48.4514C90.1614 49.075 90.2307 49.4908 90.0922 49.6986C90.0229 49.8372 90.0229 50.0797 90.0922 50.4262C90.1614 50.9805 90.2307 51.5695 90.3 52.1931C90.4385 52.7474 90.5771 53.3017 90.7156 53.8561C90.7849 54.4104 90.7849 54.9647 90.7156 55.519C90.7156 56.0734 90.7503 56.6277 90.8196 57.182C90.8888 57.4592 90.9581 57.7363 91.0274 58.0135C91.0967 58.2214 91.1659 58.4639 91.2352 58.741C91.3738 60.0576 91.443 61.4087 91.443 62.7945C91.5123 64.1111 91.7201 65.3929 92.0665 66.6402L92.5861 67.9913C92.7246 68.8921 92.7593 69.7929 92.69 70.6936C92.69 71.5944 92.7939 72.4952 93.0017 73.396C93.071 73.7424 93.1749 74.0542 93.3135 74.3314C93.452 74.5393 93.5906 74.8164 93.7291 75.1629C93.8677 75.5093 93.9716 75.8904 94.0408 76.3062C94.1101 76.6526 94.214 76.9991 94.3526 77.3455C94.699 77.692 95.0453 78.0384 95.3917 78.3849C95.7381 78.6621 95.9805 79.0778 96.1191 79.6321C96.5347 79.7707 96.8811 80.0132 97.1582 80.3597C97.4353 80.6368 97.7817 80.8447 98.1973 80.9833C98.1281 81.3297 98.1973 81.5723 98.4052 81.7108C98.613 81.8494 98.7515 82.0573 98.8208 82.3345C99.0286 82.4037 99.375 82.6809 99.8599 83.1659C100.414 83.7203 100.761 84.1014 100.899 84.3092C101.245 84.5864 101.661 84.6903 102.146 84.621C102.631 84.5518 103.047 84.5518 103.393 84.621C104.432 84.9675 105.09 85.0714 105.367 84.9328C105.644 84.7943 105.956 84.8289 106.303 85.0368C107.134 84.9675 107.653 84.9675 107.861 85.0368C108.138 85.1754 108.415 85.2447 108.693 85.2447C109.177 85.1061 109.455 85.0714 109.524 85.1407C109.593 85.21 109.697 85.2447 109.836 85.2447C110.182 85.2447 110.459 85.1754 110.667 85.0368C110.944 84.8982 111.256 84.8289 111.602 84.8289C111.948 84.8289 112.295 84.8982 112.641 85.0368C113.057 85.1754 113.472 85.2447 113.888 85.2447C114.235 85.2447 114.512 85.1754 114.719 85.0368C114.997 84.9675 115.308 84.8982 115.655 84.8289C115.862 84.8289 116.07 84.8635 116.278 84.9328C116.555 85.0021 116.798 84.9675 117.006 84.8289C117.698 84.5518 118.287 84.5518 118.772 84.8289C119.673 84.4825 120.539 84.136 121.37 83.7896C122.27 83.4431 123.171 83.062 124.072 82.6463C125.041 82.2998 125.907 81.9533 126.669 81.6069C127.501 81.1912 128.09 80.8447 128.436 80.5675C128.574 80.429 128.713 80.325 128.852 80.2557C129.059 80.1172 129.233 79.9786 129.371 79.84C129.648 79.7014 129.925 79.5975 130.202 79.5282C130.549 79.3896 130.861 79.2164 131.138 79.0085C131.553 78.6621 131.934 78.281 132.281 77.8652C132.627 77.4495 133.008 77.0684 133.424 76.7219C133.77 76.4448 134.22 76.0983 134.775 75.6826C135.398 75.2668 135.779 74.8857 135.918 74.5393C136.195 74.0542 136.368 73.8117 136.437 73.8117C136.506 73.8117 136.61 73.7424 136.749 73.6038C136.887 73.4653 136.957 73.292 136.957 73.0842C137.026 72.807 137.13 72.5991 137.268 72.4605C137.684 72.0448 137.857 71.8023 137.788 71.733C137.788 71.5944 137.823 71.4558 137.892 71.3173C138.03 71.1094 138.169 70.9362 138.308 70.7976C138.515 70.659 138.689 70.4858 138.827 70.2779C138.758 69.7929 138.793 69.4464 138.931 69.2385C139.139 69.0307 139.381 68.7535 139.658 68.4071C139.658 68.0606 139.658 67.6102 139.658 67.0559C139.728 66.5016 139.832 66.0512 139.97 65.7047C140.109 65.4969 140.143 65.289 140.074 65.0811C140.074 64.8732 140.109 64.7 140.178 64.5614C140.524 64.1457 140.663 63.8339 140.594 63.626C140.594 63.3489 140.594 63.141 140.594 63.0024C140.663 62.7945 140.836 62.3095 141.113 61.5473C141.39 60.7158 141.598 60.2308 141.737 60.0922C141.667 59.5379 141.702 59.1221 141.841 58.845C141.979 58.4985 142.152 58.0828 142.36 57.5977C142.499 56.7663 142.533 56.3505 142.464 56.3505C142.464 56.2812 142.499 56.1773 142.568 56.0387C142.914 55.0686 143.053 54.3757 142.984 53.96C142.914 53.5442 142.949 53.1285 143.088 52.7128C143.503 51.6734 143.676 50.7726 143.607 50.0104C143.538 49.2482 143.434 48.59 143.295 48.0356C143.157 47.4813 143.122 46.9616 143.191 46.4766C143.261 45.9223 143.226 45.368 143.088 44.8136C142.81 44.1207 142.741 43.705 142.88 43.5664C143.018 43.3585 143.018 43.1853 142.88 43.0467C142.741 42.7696 142.603 42.4924 142.464 42.2152C142.395 41.9381 142.291 41.6956 142.152 41.4877C142.291 40.7255 142.152 39.8247 141.737 38.7854C141.39 37.746 141.148 36.8452 141.009 36.083C140.94 35.8752 140.94 35.7019 141.009 35.5634C141.148 35.3555 141.217 35.1476 141.217 34.9397C141.148 34.7319 141.044 34.524 140.905 34.3161C140.767 34.039 140.663 33.7964 140.594 33.5886C140.524 32.7571 140.455 32.3413 140.386 32.3413C140.317 32.2721 140.247 32.1681 140.178 32.0295C140.178 31.8217 140.213 31.6484 140.282 31.5099C140.42 31.302 140.455 31.0941 140.386 30.8862C140.039 30.3319 139.797 29.8469 139.658 29.4311C139.52 28.9461 139.52 28.3918 139.658 27.7682C138.896 27.2831 138.411 26.6249 138.204 25.7934C138.065 24.8926 137.649 24.1997 136.957 23.7147C136.541 22.8139 136.333 22.2596 136.333 22.0517C136.333 21.7745 136.264 21.532 136.125 21.3242C135.918 20.9777 135.64 20.6659 135.294 20.3887C134.948 20.0423 134.636 19.6612 134.359 19.2454C134.22 19.0376 134.151 18.8297 134.151 18.6218C134.22 18.3447 134.186 18.1021 134.047 17.8943C133.909 17.6864 133.735 17.5132 133.528 17.3746C133.32 17.236 133.147 17.0628 133.008 16.8549C132.869 16.7163 132.731 16.5085 132.592 16.2313C132.523 15.9541 132.419 15.7116 132.281 15.5038C132.004 15.1573 131.623 14.9494 131.138 14.8801C130.722 14.7416 130.514 14.3951 130.514 13.8408C129.821 13.1479 129.163 12.4896 128.54 11.866C127.986 11.2424 127.293 10.6534 126.462 10.0991C125.7 9.54477 124.938 9.05974 124.175 8.64399C123.413 8.22825 122.825 7.95109 122.409 7.81251C121.855 7.67392 121.301 7.60463 120.746 7.60463C120.261 7.53534 119.707 7.53534 119.084 7.60463C119.014 7.53534 118.807 7.43141 118.46 7.29283C118.183 7.15425 117.871 7.01566 117.525 6.87708C117.179 6.7385 116.832 6.59992 116.486 6.46134C116.14 6.32276 115.932 6.25347 115.862 6.25347ZM83.8574 24.6501C83.6496 25.6202 83.2686 26.4517 82.7144 27.1446C82.1602 27.7682 81.8484 28.6689 81.7792 29.8469C81.5713 30.4705 81.2596 30.9209 80.8439 31.1981C80.7054 31.5445 80.6361 31.9256 80.6361 32.3413C80.7054 32.6878 80.7054 33.0343 80.6361 33.3807C80.4976 33.6579 80.359 33.9004 80.2205 34.1083C80.0819 34.3161 80.1512 34.5933 80.4283 34.9397C80.0126 35.5634 79.7355 36.3256 79.597 37.2263C79.5277 38.1271 79.4585 38.9586 79.3892 39.7208C79.5277 40.6216 79.5277 41.1759 79.3892 41.3838C79.3199 41.5223 79.2853 41.6956 79.2853 41.9034C79.216 42.1113 79.216 42.3192 79.2853 42.5271C79.3545 42.7349 79.3892 42.9774 79.3892 43.2546C79.4585 43.8782 79.3892 44.5018 79.1814 45.1255C79.0428 45.6798 79.1121 46.2687 79.3892 46.8924C79.2506 47.4467 79.2506 47.9317 79.3892 48.3475C79.5277 48.6939 79.597 49.0404 79.597 49.3868C79.3892 50.5648 79.3545 51.6041 79.4931 52.5049C79.7009 53.4057 79.8741 54.2371 80.0127 54.9993C80.1512 55.4151 80.2551 55.8308 80.3244 56.2466C80.3937 56.6623 80.4283 57.1127 80.4283 57.5977C80.4283 57.8749 80.359 58.1521 80.2205 58.4292C80.1512 58.7064 80.1512 58.9836 80.2205 59.2607V60.404C80.4976 61.0969 80.6708 61.7898 80.74 62.4827C80.8786 63.1063 81.1557 63.73 81.5713 64.3536C81.2942 64.3536 81.225 64.5614 81.3635 64.9772C81.5021 65.3236 81.6406 65.5662 81.7792 65.7047C81.6406 66.5362 81.6753 67.1252 81.8831 67.4716C82.0909 67.7488 82.2294 68.0606 82.2987 68.4071C82.368 68.5456 82.368 68.7535 82.2987 69.0307C82.2294 69.2385 82.2294 69.4118 82.2987 69.5504C82.6451 69.8275 82.8876 70.174 83.0261 70.5897C83.2339 71.0055 83.511 71.3173 83.8574 71.5251C83.9267 72.1488 84.0652 72.6684 84.2731 73.0842C84.5502 73.4999 84.758 73.9849 84.8965 74.5393C85.5893 74.955 86.1089 75.6826 86.4552 76.7219C87.4251 77.207 88.2564 78.0384 88.9491 79.2164C89.2955 79.2164 89.538 79.3203 89.6765 79.5282C89.8151 79.6668 90.0922 79.7014 90.5078 79.6321C90.3693 79.9786 90.4039 80.1864 90.6117 80.2557C90.8196 80.325 90.9581 80.4983 91.0274 80.7754C91.443 80.7061 91.6855 80.8447 91.7548 81.1912C91.8933 81.4683 92.1704 81.5376 92.5861 81.399C92.4475 80.9833 92.2051 80.6368 91.8587 80.3597C91.5123 80.0825 91.2352 79.7707 91.0274 79.4242C90.8888 79.1471 90.7849 78.8699 90.7156 78.5928C90.7156 78.2463 90.6464 77.9345 90.5078 77.6573C90.0922 77.3109 89.8843 76.9991 89.8843 76.7219C89.9536 76.3755 89.9536 76.1329 89.8843 75.9944C89.8151 75.8558 89.7112 75.6826 89.5726 75.4747C89.4341 75.2668 89.3301 75.0936 89.2609 74.955C89.1223 73.8464 89.0184 72.807 88.9491 71.8369C88.8799 70.7976 88.8799 69.7236 88.9491 68.6149C88.1871 67.5756 87.8061 66.3976 87.8061 65.0811C87.8061 63.6953 87.7368 62.4134 87.5983 61.2355C87.529 61.0276 87.4251 60.8544 87.2865 60.7158C87.2173 60.5079 87.1826 60.3001 87.1826 60.0922C87.3212 59.0528 87.2865 58.3599 87.0787 58.0135C86.8709 57.667 86.767 57.3206 86.767 56.9741C86.767 56.7663 86.8016 56.5584 86.8709 56.3505C86.9401 56.0734 86.9748 55.8308 86.9748 55.623C86.9055 54.9301 86.6977 54.2025 86.3513 53.4403C86.0742 52.6781 86.1089 51.9852 86.4552 51.3616C86.2474 51.1537 86.0742 50.8419 85.9357 50.4262C85.8664 49.9411 85.7971 49.4561 85.7278 48.9711C85.7278 48.4167 85.6932 47.8971 85.6239 47.412C85.6239 46.927 85.6239 46.5805 85.6239 46.3727C85.6239 46.0955 85.6586 45.853 85.7278 45.6451C85.7971 45.368 85.8317 45.0908 85.8317 44.8136C85.7625 44.3286 85.6239 43.8782 85.4161 43.4625C85.2775 43.0467 85.2083 42.5963 85.2083 42.1113C85.4854 41.4184 85.52 41.0373 85.3122 40.968C85.1044 40.8987 85.0697 40.7601 85.2083 40.5523C85.5546 40.6216 85.6932 40.483 85.6239 40.1365C85.5546 39.7901 85.6239 39.5822 85.8317 39.5129C85.6239 38.7507 85.5893 37.9539 85.7278 37.1224C85.8664 36.2909 85.7625 35.5634 85.4161 34.9397C85.6932 33.7618 85.7971 32.6185 85.7278 31.5099C85.7278 30.3319 85.6932 29.154 85.6239 27.976C85.8317 27.7682 86.0049 27.4217 86.1435 26.9367C86.282 26.3824 86.3513 25.7934 86.3513 25.1698C86.3513 24.5462 86.3167 23.9572 86.2474 23.4029C86.1781 22.8485 86.1089 22.4328 86.0396 22.1556C85.4854 22.5021 85.139 22.9871 85.0005 23.6107C84.8619 24.1651 84.4809 24.5115 83.8574 24.6501Z" fill="#E1DFD9"/>
<path d="M216.865 15.5038C217.143 14.9494 217.281 14.2912 217.281 13.529C217.281 12.7668 217.212 12.0739 217.073 11.4503C217.004 11.1038 216.9 10.7227 216.762 10.307C216.623 9.89122 216.554 9.51012 216.554 9.16367C216.623 8.54006 216.623 8.1936 216.554 8.12431C216.554 8.05502 216.554 7.95109 216.554 7.81251C216.9 6.84244 217.039 6.18418 216.969 5.83773C216.9 5.42198 216.935 5.04088 217.073 4.69443C217.212 4.34798 217.143 4.17475 216.865 4.17475C216.588 4.10546 216.519 3.89759 216.658 3.55114C216.935 2.92752 217.454 2.58107 218.216 2.51178C218.978 2.3732 219.636 2.33856 220.191 2.40785C220.052 2.82359 220.121 3.17004 220.398 3.4472C220.676 3.65507 220.849 3.93224 220.918 4.27869C221.057 4.55585 221.057 4.86766 220.918 5.21411C220.849 5.49127 220.987 5.69914 221.334 5.83773C221.195 6.32276 220.953 6.80779 220.606 7.29283C220.26 7.70857 220.26 8.1936 220.606 8.74793C220.745 8.9558 220.745 9.19832 220.606 9.47548C220.537 9.68335 220.537 9.89122 220.606 10.0991C220.606 10.307 220.641 10.5148 220.71 10.7227C220.849 10.8613 220.918 11.0345 220.918 11.2424C220.987 11.4503 220.953 11.7274 220.814 12.0739C220.676 12.351 220.71 12.5243 220.918 12.5936C220.849 13.0786 220.849 13.3904 220.918 13.529C221.057 13.6676 221.126 13.8061 221.126 13.9447C221.195 14.1526 221.195 14.3951 221.126 14.6723C221.057 14.8801 221.126 15.0534 221.334 15.1919C221.057 15.7463 220.814 16.2313 220.606 16.647C220.468 16.9935 220.398 17.5132 220.398 18.2061C220.398 18.7604 220.295 19.2801 220.087 19.7651C219.879 20.2502 219.775 20.7005 219.775 21.1163C219.775 21.532 219.81 21.9478 219.879 22.3635C219.948 22.7793 219.914 23.1604 219.775 23.5068C219.359 24.0611 219.152 24.5808 219.152 25.0658C219.152 25.5509 218.909 25.8627 218.424 26.0013C218.078 26.1398 217.731 26.1745 217.385 26.1052C217.108 25.9666 216.831 25.8627 216.554 25.7934C215.93 24.6847 215.861 23.5761 216.346 22.4674C216.207 22.121 215.965 21.9131 215.618 21.8438C215.341 21.7053 215.134 21.4627 214.995 21.1163C214.51 19.7305 213.991 18.7258 213.436 18.1021C212.882 17.4785 212.293 16.5778 211.67 15.3998C210.561 14.499 209.799 13.4597 209.384 12.2817C209.107 12.1432 208.899 12.0392 208.76 11.9699C208.622 11.8314 208.379 11.7967 208.033 11.866C207.825 11.3117 207.513 10.8613 207.098 10.5148C206.751 10.0991 206.543 9.57941 206.474 8.9558C206.197 8.81722 205.989 8.64399 205.851 8.43612C205.712 8.15896 205.539 7.95109 205.331 7.81251C205.054 7.67392 204.742 7.56999 204.396 7.5007C204.119 7.43141 203.98 7.22354 203.98 6.87708C203.426 6.59992 203.01 6.46134 202.733 6.46134C202.526 6.39205 202.352 6.32276 202.214 6.25347C201.244 5.90702 200.239 5.56056 199.2 5.21411C198.23 4.86766 197.226 4.52121 196.187 4.17475C195.84 4.03617 195.529 4.00153 195.252 4.07082C195.044 4.14011 194.767 4.17475 194.42 4.17475C194.282 4.10546 194.039 4.07082 193.693 4.07082C193.416 4.00153 193.104 3.96688 192.758 3.96688C192.411 3.89759 192.065 3.86295 191.719 3.86295C191.442 3.86295 191.268 3.89759 191.199 3.96688C190.368 3.96688 189.952 4.03617 189.952 4.17475C190.021 4.31333 189.987 4.41727 189.848 4.48656C189.155 4.41727 188.74 4.41727 188.601 4.48656C188.532 4.55585 188.428 4.62514 188.29 4.69443C187.043 5.11018 186.107 5.52592 185.484 5.94166C184.93 6.28811 184.237 6.39205 183.406 6.25347C183.129 6.46134 182.817 6.66921 182.47 6.87708C182.193 7.01566 181.985 7.25818 181.847 7.60463C180.946 7.8818 180.288 8.12431 179.873 8.33218C179.457 8.47077 179.041 8.60935 178.626 8.74793C177.587 9.6487 176.617 10.3763 175.716 10.9306C175.716 11.0692 175.647 11.3117 175.508 11.6581C175.37 11.9353 175.231 12.2471 175.093 12.5936C174.954 12.94 174.816 13.2865 174.677 13.6329C174.608 13.9101 174.538 14.0833 174.469 14.1526C173.846 15.2612 173.499 16.162 173.43 16.8549C173.43 17.4785 173.465 18.0675 173.534 18.6218C173.188 18.899 172.91 19.6265 172.703 20.8045C172.564 21.9824 172.46 22.8139 172.391 23.2989C172.322 23.5068 172.252 23.7147 172.183 23.9226C172.114 24.1304 172.045 24.3729 171.975 24.6501C172.045 25.2737 172.045 25.5855 171.975 25.5855C171.906 25.5855 171.837 25.6548 171.767 25.7934C171.767 25.932 171.802 26.1398 171.871 26.417C171.941 26.6249 171.975 26.7981 171.975 26.9367C171.975 27.2831 171.906 27.8028 171.767 28.4957C171.767 28.7729 171.698 29.0154 171.56 29.2233C171.49 29.4311 171.456 29.639 171.456 29.8469C171.386 30.1933 171.386 30.5051 171.456 30.7823C171.594 30.9902 171.663 31.2673 171.663 31.6138C171.663 32.376 171.525 33.1382 171.248 33.9004C171.04 34.5933 170.901 35.3208 170.832 36.083C170.763 36.4295 170.763 36.8106 170.832 37.2263C170.901 37.6421 170.901 38.0232 170.832 38.3696C170.832 38.6468 170.763 38.9239 170.624 39.2011C170.555 39.409 170.486 39.6515 170.417 39.9287C170.417 40.2058 170.451 40.4483 170.52 40.6562C170.659 40.8641 170.694 41.072 170.624 41.2798C170.624 41.557 170.555 41.8342 170.417 42.1113C170.347 42.3192 170.278 42.5617 170.209 42.8389C170.209 43.1853 170.243 43.5318 170.313 43.8782C170.382 44.1554 170.417 44.4672 170.417 44.8136C170.417 45.2294 170.417 45.6451 170.417 46.0609C170.417 46.4766 170.347 46.8924 170.209 47.3081C170.209 47.516 170.139 47.7238 170.001 47.9317C169.932 48.0703 169.897 48.2435 169.897 48.4514C169.758 49.075 169.689 49.7333 169.689 50.4262C169.758 51.0498 169.758 51.6734 169.689 52.297C169.62 52.7128 169.516 53.1285 169.377 53.5442C169.239 53.8907 169.135 54.2718 169.066 54.6875C169.274 54.9647 169.308 55.3112 169.17 55.7269C169.1 56.0733 169.066 56.4198 169.066 56.7663C169.204 58.1521 169.412 59.5032 169.689 60.8198C169.966 62.1363 170.105 63.4874 170.105 64.8732C170.105 65.1504 170.07 65.3929 170.001 65.6008C169.932 65.8087 169.897 66.0165 169.897 66.2244C169.897 66.5016 169.897 66.9173 169.897 67.4716C169.897 68.026 169.932 68.6149 170.001 69.2385C170.07 69.7929 170.139 70.3125 170.209 70.7976C170.347 71.2826 170.486 71.6291 170.624 71.8369C170.486 72.4605 170.451 73.0495 170.52 73.6038C170.59 74.0889 170.832 74.6086 171.248 75.1629C171.386 75.3708 171.525 75.544 171.663 75.6826C171.871 75.8211 171.906 76.029 171.767 76.3062C171.629 76.6526 171.733 77.2762 172.079 78.177C172.495 79.0085 172.807 79.5628 173.014 79.84C173.153 79.9786 173.361 80.0825 173.638 80.1518C173.915 80.2211 174.019 80.429 173.95 80.7754C174.504 80.6368 174.954 80.7754 175.3 81.1912C175.716 81.5376 176.166 81.7801 176.651 81.9187C176.928 82.0573 177.171 82.0919 177.379 82.0226C177.656 81.8841 177.933 81.8494 178.21 81.9187C178.418 81.988 178.591 82.0919 178.73 82.2305C178.937 82.3691 179.145 82.473 179.353 82.5423C179.561 82.6116 179.769 82.6116 179.977 82.5423C180.254 82.473 180.496 82.473 180.704 82.5423C181.466 82.9581 181.882 83.1313 181.951 83.062C182.02 82.9927 182.124 82.9581 182.263 82.9581C182.678 82.8888 183.059 82.9234 183.406 83.062C183.752 83.2006 184.133 83.1659 184.549 82.9581C184.964 83.2352 185.345 83.3738 185.692 83.3738C186.038 83.4431 186.454 83.4777 186.939 83.4777C188.116 83.6163 189.086 83.547 189.848 83.2699C190.68 83.062 191.511 82.9581 192.342 82.9581C192.619 82.8195 192.758 82.6116 192.758 82.3345C192.827 82.0573 193 81.8494 193.277 81.7108C193.762 81.8494 194.143 81.8494 194.42 81.7108C194.697 81.5723 195.044 81.4683 195.459 81.399C195.806 81.2605 195.91 81.0526 195.771 80.7754C195.702 80.4983 195.771 80.2904 195.979 80.1518C196.325 80.2211 196.741 80.1864 197.226 80.0479C197.78 79.9093 198.196 79.7707 198.473 79.6321C199.096 79.2164 199.547 79.0432 199.824 79.1124C200.101 79.1124 200.309 78.9046 200.447 78.4888C201.001 78.6274 201.521 78.5928 202.006 78.3849C202.491 78.1077 203.01 77.8652 203.565 77.6573C204.05 77.4495 204.292 77.2416 204.292 77.0337C204.361 76.7566 204.638 76.7219 205.123 76.9298C205.678 76.1676 206.336 75.5093 207.098 74.955C207.86 74.4007 208.552 73.7771 209.176 73.0842C209.314 72.8763 209.418 72.6684 209.488 72.4605C209.626 72.1834 209.765 71.9409 209.903 71.733C210.042 71.5251 210.215 71.3519 210.423 71.2133C210.631 71.0055 210.804 70.8322 210.942 70.6936C211.012 70.0007 211.22 69.3425 211.566 68.7189C211.912 68.0953 212.189 67.4716 212.397 66.848C212.605 66.2937 212.744 65.7394 212.813 65.1851C212.951 64.6307 213.09 64.0764 213.229 63.5221C213.367 63.1756 213.471 62.8638 213.54 62.5867C213.679 62.3095 213.783 61.9977 213.852 61.6512C213.852 61.3741 213.817 61.1316 213.748 60.9237C213.748 60.6465 213.783 60.3694 213.852 60.0922C213.921 59.7457 213.991 59.3993 214.06 59.0528C214.198 58.6371 214.302 58.256 214.372 57.9095C214.51 57.5631 214.545 57.2166 214.475 56.8702C214.475 56.5237 214.51 56.1773 214.579 55.8308C214.649 55.4151 214.753 55.034 214.891 54.6875C215.03 54.2718 215.168 53.8561 215.307 53.4403C215.653 52.4702 215.549 51.5348 214.995 50.634C215.134 50.2876 215.237 49.9411 215.307 49.5947C215.445 49.1789 215.445 48.7978 215.307 48.4514C214.406 47.5506 213.575 47.2042 212.813 47.412C212.12 47.5506 211.497 47.6546 210.942 47.7238C210.458 47.7238 210.007 47.6892 209.592 47.6199C209.176 47.5506 208.76 47.516 208.345 47.516C207.79 47.6546 207.236 47.6892 206.682 47.6199C206.197 47.5506 205.643 47.4813 205.019 47.412C204.465 47.2735 203.946 47.1695 203.461 47.1002C202.976 46.9616 202.733 46.8924 202.733 46.8924C202.248 46.2687 201.937 45.9916 201.798 46.0609C201.729 46.1302 201.66 46.0955 201.59 45.9569C201.59 44.8483 201.833 44.2247 202.318 44.0861C202.872 43.8782 203.461 43.8089 204.084 43.8782C204.708 43.9475 205.331 44.0861 205.955 44.294C206.647 44.4325 207.271 44.4672 207.825 44.3979C208.379 44.4672 208.83 44.5018 209.176 44.5018C209.522 44.4325 209.903 44.3979 210.319 44.3979C211.15 44.5365 211.67 44.5711 211.878 44.5018C212.085 44.3633 212.259 44.2593 212.397 44.19C212.744 44.1207 213.09 44.0861 213.436 44.0861C213.852 44.0168 214.233 43.9129 214.579 43.7743C215.064 43.6357 215.515 43.5664 215.93 43.5664C216.346 43.5664 216.796 43.5664 217.281 43.5664C218.182 43.6357 219.048 43.6011 219.879 43.4625C220.71 43.2546 221.507 43.1853 222.269 43.2546C222.615 43.2546 222.927 43.3239 223.204 43.4625C223.481 43.5318 223.758 43.5664 224.035 43.5664C224.382 43.5664 224.763 43.5318 225.178 43.4625C225.663 43.3239 226.079 43.3585 226.425 43.5664C226.91 43.22 227.361 43.0814 227.776 43.1507C228.261 43.1507 228.781 43.1853 229.335 43.2546C229.889 43.8089 230.097 44.5018 229.958 45.3333C229.82 46.1648 229.404 46.8231 228.711 47.3081C228.365 47.1695 227.949 47.1349 227.465 47.2042C227.049 47.2042 226.703 47.1002 226.425 46.8924C225.94 47.1002 225.386 47.2042 224.763 47.2042C224.139 47.1349 223.481 47.0656 222.788 46.9963C222.165 46.8577 221.507 46.7884 220.814 46.7884C220.191 46.7191 219.602 46.7538 219.048 46.8924C218.909 47.4467 218.909 47.9664 219.048 48.4514C219.255 48.9364 219.394 49.4561 219.463 50.0104C219.394 50.0797 219.325 50.3569 219.255 50.8419C219.186 51.2577 219.082 51.7773 218.944 52.401C218.874 52.9553 218.771 53.5096 218.632 54.0639C218.493 54.549 218.355 54.8608 218.216 54.9993C218.563 55.6922 218.632 56.2812 218.424 56.7663C218.216 57.2513 218.112 57.771 218.112 58.3253C218.112 58.6025 218.147 58.9836 218.216 59.4686C218.286 59.9536 218.355 60.4733 218.424 61.0276C218.493 61.5127 218.528 61.963 218.528 62.3788C218.528 62.7945 218.424 63.1063 218.216 63.3142C218.493 63.5221 218.667 63.9725 218.736 64.6654C218.805 65.3583 218.84 66.1205 218.84 66.952C218.84 67.7834 218.771 68.5803 218.632 69.3425C218.563 70.0354 218.493 70.5551 218.424 70.9015C218.771 71.4558 218.874 72.0102 218.736 72.5645C218.667 73.1188 218.632 73.6731 218.632 74.2275C218.632 75.059 218.736 75.8904 218.944 76.7219C219.152 77.5534 219.255 78.3849 219.255 79.2164C219.255 79.4935 219.221 79.7361 219.152 79.9439C219.082 80.1518 219.048 80.3597 219.048 80.5675C219.048 81.2604 219.048 82.0573 219.048 82.9581C219.117 83.8588 218.805 84.4825 218.112 84.8289C217.766 85.0368 217.454 85.0368 217.177 84.8289C216.9 84.621 216.623 84.4478 216.346 84.3092C215.722 83.9628 215.376 83.6163 215.307 83.2699C215.307 82.9234 215.134 82.6809 214.787 82.5423C214.926 82.1959 214.995 81.8841 214.995 81.6069C215.064 81.2604 215.168 80.914 215.307 80.5675C215.03 79.9439 214.96 79.251 215.099 78.4888C215.238 77.6573 215.272 76.8605 215.203 76.0983C215.134 75.8904 215.03 75.6826 214.891 75.4747C214.822 75.2668 214.787 75.0243 214.787 74.7471C214.718 74.5393 214.718 74.366 214.787 74.2275C214.926 74.0196 214.995 73.8117 214.995 73.6038C214.995 73.3267 214.926 73.1188 214.787 72.9802C214.718 72.8416 214.649 72.6684 214.579 72.4605C214.926 72.322 215.03 72.0448 214.891 71.6291C214.753 71.2133 214.718 70.8322 214.787 70.4858C214.302 70.9015 214.06 71.248 214.06 71.5251C214.06 71.733 213.991 71.9062 213.852 72.0448C213.644 72.0448 213.367 72.322 213.021 72.8763C212.744 73.4306 212.536 73.8117 212.397 74.0196C211.774 74.9897 211.15 75.7518 210.527 76.3062C209.903 76.8605 209.245 77.4495 208.552 78.0731C207.929 78.766 207.479 79.1471 207.202 79.2164C205.955 80.1171 204.708 80.914 203.461 81.6069C202.283 82.2305 200.898 82.6116 199.304 82.7502C198.819 83.0966 198.3 83.3738 197.746 83.5817C197.191 83.8588 196.741 84.2746 196.395 84.8289C196.118 84.6903 195.91 84.6903 195.771 84.8289C195.633 85.0368 195.459 85.1754 195.252 85.2447C194.628 85.3139 194.316 85.3832 194.316 85.4525C194.316 85.5218 194.247 85.5911 194.109 85.6604C193.901 85.5218 193.554 85.5565 193.069 85.7643C192.654 85.9722 192.342 86.1108 192.134 86.1801C191.857 86.2494 191.58 86.2494 191.303 86.1801C191.095 86.1801 190.853 86.1801 190.576 86.1801C190.229 86.2494 189.917 86.3533 189.64 86.4919C189.433 86.6305 189.155 86.7344 188.809 86.8037C188.671 86.873 188.497 86.873 188.29 86.8037C188.082 86.7344 187.874 86.7344 187.666 86.8037C186.904 87.1501 186.315 87.2194 185.9 87.0116C185.484 86.8037 185.103 86.873 184.756 87.2194C184.549 87.0808 184.306 86.9423 184.029 86.8037C183.752 86.6651 183.475 86.5958 183.198 86.5958C182.574 86.7344 181.916 86.7344 181.223 86.5958C180.531 86.5265 179.803 86.3879 179.041 86.1801C178.349 86.0415 177.656 85.8683 176.963 85.6604C176.34 85.4525 175.924 85.2447 175.716 85.0368C175.508 84.8982 175.266 84.8289 174.989 84.8289C174.712 84.8982 174.504 84.9675 174.365 85.0368C174.019 84.6903 173.638 84.4825 173.222 84.4132C172.876 84.3439 172.529 84.2399 172.183 84.1014C171.837 83.9628 171.386 83.6856 170.832 83.2699C170.347 82.9234 169.828 82.5423 169.274 82.1266C168.719 81.7108 168.2 81.2951 167.715 80.8793C167.299 80.4636 166.987 80.1172 166.78 79.84C166.156 79.0778 165.602 78.4888 165.117 78.0731C164.632 77.5881 164.286 77.0684 164.078 76.514C163.732 76.514 163.454 76.3755 163.247 76.0983C163.039 75.8211 162.796 75.5786 162.519 75.3708C162.242 75.1629 161.965 74.9897 161.688 74.8511C161.411 74.7125 161.168 74.5046 160.961 74.2275C160.753 73.9503 160.545 73.6038 160.337 73.1881C160.129 72.7724 159.956 72.3913 159.817 72.0448C159.333 71.144 158.917 70.5204 158.571 70.174C158.224 69.7582 157.912 69.3425 157.635 68.9267C157.358 68.4417 157.046 67.8181 156.7 67.0559C156.423 66.2937 156.146 65.5315 155.869 64.7693C155.661 63.9378 155.453 63.141 155.245 62.3788C155.107 61.5473 155.003 60.8544 154.934 60.3001C154.934 59.7458 154.934 59.1914 154.934 58.6371C155.003 58.0135 154.83 57.5285 154.414 57.182C154.553 56.9741 154.622 56.6623 154.622 56.2466C154.691 55.8308 154.691 55.3804 154.622 54.8954C154.622 54.3411 154.587 53.8561 154.518 53.4403C154.449 52.9553 154.414 52.5742 154.414 52.297C154.345 51.812 154.31 51.3962 154.31 51.0498C154.379 50.7033 154.414 50.3569 154.414 50.0104C154.414 49.664 154.379 49.075 154.31 48.2435C154.31 47.3427 154.414 46.7538 154.622 46.4766C154.691 45.368 154.656 44.6751 154.518 44.3979C154.379 44.1207 154.345 43.7396 154.414 43.2546C154.76 42.146 154.934 41.3838 154.934 40.968C155.003 40.483 155.072 39.998 155.141 39.5129C155.28 38.7507 155.419 38.0232 155.557 37.3303C155.765 36.6374 155.903 35.9098 155.973 35.1476C156.319 34.5933 156.631 34.0736 156.908 33.5886C157.185 33.1035 157.324 32.5146 157.324 31.8217C157.531 31.6138 157.739 31.1981 157.947 30.5744C158.224 29.9508 158.467 29.2926 158.674 28.5997C158.882 27.9068 159.055 27.2485 159.194 26.6249C159.402 25.932 159.54 25.4123 159.61 25.0658C159.679 24.858 159.748 24.6501 159.817 24.4422C159.887 24.2344 159.956 24.0265 160.025 23.8186C160.025 23.3336 160.268 22.6407 160.753 21.7399C161.307 20.8391 161.757 20.3194 162.104 20.1809C162.242 19.8344 162.415 19.5226 162.623 19.2454C162.831 18.9683 163.039 18.6911 163.247 18.414C163.732 18.2061 164.009 17.9289 164.078 17.5825C164.147 17.236 164.39 17.0628 164.805 17.0628C164.736 16.5778 164.875 16.1967 165.221 15.9195C165.637 15.6423 165.948 15.3305 166.156 14.9841C166.78 14.014 167.334 13.3557 167.819 13.0093C168.373 12.5936 168.858 12.2125 169.274 11.866C169.897 11.381 170.313 10.9999 170.52 10.7227C170.798 10.4455 171.109 10.1684 171.456 9.89122C172.079 9.3369 172.426 9.05974 172.495 9.05974C172.564 9.05974 172.668 9.02509 172.807 8.9558C173.014 8.81722 173.153 8.67864 173.222 8.54006C173.361 8.33218 173.603 8.15896 173.95 8.02038C174.019 7.74321 174.296 7.43141 174.781 7.08496C175.266 6.66921 175.82 6.28811 176.443 5.94166C177.067 5.59521 177.656 5.2834 178.21 5.00624C178.764 4.65979 179.214 4.41727 179.561 4.27869C179.699 4.2094 179.873 4.17475 180.08 4.17475C180.358 4.17475 180.565 4.10546 180.704 3.96688C180.842 3.8283 180.946 3.68972 181.016 3.55114C181.154 3.41256 181.327 3.27398 181.535 3.1354C182.574 2.78894 183.371 2.54643 183.925 2.40785C184.479 2.26926 184.964 1.9921 185.38 1.57636C185.588 1.64565 185.865 1.64565 186.211 1.57636C186.627 1.50707 187.043 1.40313 187.458 1.26455C187.874 1.05668 188.22 0.883454 188.497 0.744873C188.844 0.537001 189.086 0.363775 189.225 0.225194C189.571 0.571647 189.917 0.675583 190.264 0.537002C190.61 0.32913 190.957 0.225194 191.303 0.225194C191.857 0.363775 192.169 0.39842 192.238 0.32913C192.307 0.190549 192.411 0.0866131 192.55 0.0173226C193.104 0.225194 193.416 0.294485 193.485 0.225194C193.624 0.0866131 193.866 0.0173226 194.213 0.0173226C194.836 -0.0519679 195.563 0.0866131 196.395 0.433066C197.295 0.710228 197.953 1.02204 198.369 1.36849C199.27 1.36849 199.962 1.57636 200.447 1.9921C201.001 2.33855 201.764 2.47714 202.733 2.40785C203.426 3.03146 203.98 3.34327 204.396 3.34327C204.881 3.34327 205.193 3.62043 205.331 4.17475C205.885 4.17475 206.336 4.31333 206.682 4.5905C207.098 4.86766 207.444 5.17947 207.721 5.52592C208.068 5.87237 208.379 6.21882 208.656 6.56528C209.003 6.84244 209.418 7.05031 209.903 7.18889C210.042 7.39676 210.111 7.67392 210.111 8.02038C210.111 8.36683 210.319 8.47077 210.735 8.33218C210.735 8.74793 210.839 9.09438 211.046 9.37154C211.254 9.6487 211.497 9.92587 211.774 10.203C212.051 10.4802 212.293 10.7574 212.501 11.0345C212.709 11.3117 212.813 11.6581 212.813 12.0739C213.298 12.2125 213.644 12.4896 213.852 12.9054C214.129 13.2518 214.51 13.4943 214.995 13.6329C215.134 14.1179 215.341 14.5683 215.618 14.9841C215.896 15.3305 216.311 15.5038 216.865 15.5038ZM162.727 28.2879C162.658 28.6343 162.658 28.8768 162.727 29.0154C162.866 29.0847 162.935 29.2233 162.935 29.4311C162.381 29.5697 162.034 29.9162 161.896 30.4705C161.757 31.0248 161.653 31.5445 161.584 32.0295C161.238 32.376 160.822 33.0343 160.337 34.0043C159.921 34.9744 159.817 35.6673 160.025 36.083C159.54 37.0531 159.194 37.9192 158.986 38.6814C158.848 39.3743 158.674 40.1019 158.467 40.8641C158.328 41.6263 158.19 42.3538 158.051 43.0467C157.982 43.7396 158.051 44.2593 158.259 44.6058C158.19 45.0908 158.12 45.5758 158.051 46.0609C157.982 46.4766 157.912 46.9616 157.843 47.516C157.843 47.9317 157.878 48.3475 157.947 48.7632C158.016 49.1789 158.051 49.5947 158.051 50.0104C158.051 50.3569 158.016 50.7033 157.947 51.0498C157.878 51.327 157.843 51.6388 157.843 51.9852C157.912 52.3317 157.982 52.5742 158.051 52.7128C158.19 52.7821 158.259 52.9206 158.259 53.1285C158.328 53.6135 158.259 54.3064 158.051 55.2072C157.843 56.0387 157.912 56.697 158.259 57.182C158.259 57.2513 158.259 57.4938 158.259 57.9095C158.328 58.256 158.363 58.6717 158.363 59.1568C158.432 59.5725 158.501 59.9883 158.571 60.404C158.64 60.7505 158.674 60.9583 158.674 61.0276C158.952 61.5819 159.021 61.9284 158.882 62.067C158.813 62.1363 158.813 62.2402 158.882 62.3788C159.298 63.141 159.471 63.9032 159.402 64.6654C159.748 64.9425 159.991 65.289 160.129 65.7047C160.268 66.1205 160.406 66.5016 160.545 66.848C160.822 67.2638 161.099 67.6449 161.376 67.9913C161.653 68.2685 161.792 68.6496 161.792 69.1346C162.138 69.3425 162.381 69.585 162.519 69.8622C162.658 70.1393 162.866 70.4165 163.143 70.6936C163.281 70.9015 163.454 71.0747 163.662 71.2133C163.87 71.3519 164.078 71.5251 164.286 71.733C164.494 71.8716 164.632 72.1141 164.701 72.4605C164.771 72.807 165.186 73.0495 165.948 73.1881C165.74 73.4653 165.775 73.7078 166.052 73.9156C166.329 74.1235 166.572 74.2968 166.78 74.4353C167.126 74.0196 167.195 73.4653 166.987 72.7724C166.78 72.0102 166.641 71.3866 166.572 70.9015C166.503 70.3472 166.503 69.7236 166.572 69.0307C166.641 68.2685 166.503 67.6102 166.156 67.0559C166.503 66.7094 166.606 66.3976 166.468 66.1205C166.399 65.774 166.364 65.4276 166.364 65.0811C166.503 64.3189 166.503 63.8339 166.364 63.626C166.295 63.4181 166.225 63.2103 166.156 63.0024C166.087 62.3095 166.052 61.6512 166.052 61.0276C166.052 60.404 166.018 59.7457 165.948 59.0528C165.948 58.4985 165.879 57.9095 165.74 57.2859C165.602 56.6623 165.567 56.0387 165.637 55.4151C165.637 55.0686 165.706 54.6529 165.844 54.1679C166.052 53.6828 166.156 53.3364 166.156 53.1285C166.156 52.5049 166.26 51.2923 166.468 49.4907C166.676 47.6199 166.849 45.5758 166.987 43.3585C167.126 41.1412 167.23 39.0279 167.299 37.0185C167.438 34.9397 167.507 33.5193 167.507 32.7571C167.853 32.4106 167.992 32.0295 167.923 31.6138C167.923 31.1288 167.923 30.6784 167.923 30.2626C168.13 29.154 168.338 27.9414 168.546 26.6249C168.754 25.3084 168.962 23.9572 169.17 22.5714C169.447 21.1856 169.655 19.9037 169.793 18.7258C169.932 17.5478 169.966 16.8203 169.897 16.5431C168.996 17.1667 168.234 17.8943 167.611 18.7258C167.057 19.5572 166.399 20.3541 165.637 21.1163C165.498 21.2549 165.256 21.5667 164.909 22.0517C164.632 22.4674 164.424 22.7446 164.286 22.8832C164.147 23.0218 164.078 23.2296 164.078 23.5068C164.147 23.784 164.147 24.0265 164.078 24.2344C164.009 24.4422 163.905 24.6155 163.766 24.754C163.628 24.8926 163.524 25.0658 163.454 25.2737C163.454 25.9666 163.316 26.6595 163.039 27.3524L162.727 28.2879Z" fill="#E1DFD9"/>
</svg>
