<svg width="229" height="111" viewBox="0 0 229 111" fill="none" xmlns="http://www.w3.org/2000/svg">
<g filter="url(#filter0_d_42_67)">
<path d="M22.3658 96C15.272 96 9.86305 94.0044 6.13883 90.0133C2.4146 85.9335 0.55249 80.1241 0.55249 72.5853V23.6274C0.55249 16.0886 2.4146 10.3236 6.13883 6.33251C9.86305 2.25268 15.272 0.212769 22.3658 0.212769C29.4596 0.212769 34.8686 2.25268 38.5928 6.33251C42.317 10.3236 44.1791 16.0886 44.1791 23.6274V31.6097H30.3463V22.6962C30.3463 16.5764 27.8191 13.5166 22.7648 13.5166C17.7105 13.5166 15.1834 16.5764 15.1834 22.6962V73.6496C15.1834 79.6807 17.7105 82.6962 22.7648 82.6962C27.8191 82.6962 30.3463 79.6807 30.3463 73.6496V55.4235H23.0308V42.1197H44.1791V72.5853C44.1791 80.1241 42.317 85.9335 38.5928 90.0133C34.8686 94.0044 29.4596 96 22.3658 96Z" fill="#E1DFD9"/>
<path d="M53.5728 1.54315H75.2531C82.7903 1.54315 88.2879 3.31698 91.7461 6.86466C95.2043 10.3236 96.9334 15.6895 96.9334 22.9622V28.6829C96.9334 38.3503 93.7412 44.47 87.3569 47.0421V47.3081C90.9037 48.3724 93.3866 50.5454 94.8053 53.827C96.3127 57.1086 97.0665 61.4988 97.0665 66.9977V83.3614C97.0665 86.0221 97.1551 88.1951 97.3325 89.8802C97.5098 91.4767 97.9532 93.0732 98.6626 94.6696H83.7656C83.2336 93.1618 82.8789 91.7428 82.7016 90.4124C82.5242 89.082 82.4356 86.6873 82.4356 83.2283V66.1995C82.4356 61.9423 81.7262 58.9711 80.3074 57.286C78.9774 55.6008 76.6275 54.7583 73.258 54.7583H68.2037V94.6696H53.5728V1.54315ZM73.524 41.4545C76.4502 41.4545 78.6227 40.7006 80.0414 39.1928C81.5489 37.6851 82.3026 35.1574 82.3026 31.6097V24.4256C82.3026 21.0554 81.6819 18.6163 80.4404 17.1086C79.2877 15.6008 77.4256 14.8469 74.8541 14.8469H68.2037V41.4545H73.524Z" fill="#E1DFD9"/>
<path d="M118.523 1.54315H138.342L153.504 94.6696H138.874L136.213 76.1773V76.4434H119.587L116.927 94.6696H103.36L118.523 1.54315ZM134.484 63.8048L127.967 17.7738H127.701L121.317 63.8048H134.484Z" fill="#E1DFD9"/>
<path d="M160.603 1.54315H181.485L190.796 68.1951H191.062L200.372 1.54315H221.254V94.6696H207.422V24.1596H207.156L196.515 94.6696H184.278L173.638 24.1596H173.372V94.6696H160.603V1.54315Z" fill="#E1DFD9"/>
</g>
<defs>
<filter id="filter0_d_42_67" x="0.55249" y="0.212769" width="227.702" height="110.787" filterUnits="userSpaceOnUse" color-interpolation-filters="sRGB">
<feFlood flood-opacity="0" result="BackgroundImageFix"/>
<feColorMatrix in="SourceAlpha" type="matrix" values="0 0 0 0 0 0 0 0 0 0 0 0 0 0 0 0 0 0 127 0" result="hardAlpha"/>
<feOffset dx="7" dy="15"/>
<feComposite in2="hardAlpha" operator="out"/>
<feColorMatrix type="matrix" values="0 0 0 0 0 0 0 0 0 0 0 0 0 0 0 0 0 0 0.55 0"/>
<feBlend mode="normal" in2="BackgroundImageFix" result="effect1_dropShadow_42_67"/>
<feBlend mode="normal" in="SourceGraphic" in2="effect1_dropShadow_42_67" result="shape"/>
</filter>
</defs>
</svg>
